<svg id="_x31_px" height="512" viewBox="0 0 36 36" width="512" xmlns="http://www.w3.org/2000/svg"><path d="m4.167 8.377c0 6.917-3.583 11.667-3.583 15s1.916 10.333 17.249 10.333 17.583-9.417 17.583-13.083c.001-17.167-31.249-24.5-31.249-12.25z" fill="#efefef"/><path d="m28.625 3.25h1v2h-1z" fill="#a4afc1"/><path d="m30.875 6.25h2v1h-2z" fill="#a4afc1"/><path d="m9.5 8.5h-2c-.55.01-1 .45-1 1v12c0 .55.45 1 1 1h9.5 9.5c.552 0 1-.448 1-1v-12c0-.55-.45-1-1-1h-2z" fill="#2fdf84"/><path d="m17 22.5c-2.04-1.78-4.16-2.43-6.37-2.18-.6.07-1.13-.38-1.13-.98v-11.75c0-.5.37-.93.87-1 2.29-.34 4.51.29 6.63 2.14 2.12-1.85 4.34-2.48 6.63-2.14.5.07.87.5.87 1v11.91 1s-5.042-.625-7.5 2z" fill="#f3f3f1"/><path d="m8.5 21.5v-12c0-.55.45-.99 1-1h-2c-.55.01-1 .45-1 1v12c0 .55.45 1 1 1h2c-.55 0-1-.45-1-1z" fill="#00b871"/><path d="m12.75 20.312c-.04.004-.08.004-.12.008-.6.07-1.13-.38-1.13-.98v-11.75c0-.5.37-.93.87-1 .046-.007.091-.007.137-.013-.705-.093-1.417-.094-2.137.013-.5.07-.87.5-.87 1v11.75c0 .6.53 1.05 1.13.98.716-.081 1.422-.057 2.12.059z" fill="#d5dbe1"/><path d="m20.5 29c-.113 0-.227-.038-.32-.116l-3-2.5c-.115-.095-.18-.236-.18-.384s.065-.289.18-.384l3-2.5c.211-.176.526-.149.704.064.177.212.148.528-.063.705l-2.54 2.115 2.539 2.116c.212.177.24.492.063.705-.098.118-.24.179-.383.179z"/><path d="m26.5 29c-.143 0-.285-.061-.384-.18-.177-.212-.148-.528.063-.705l2.54-2.115-2.539-2.116c-.212-.177-.24-.492-.063-.705.178-.212.493-.239.704-.064l3 2.5c.114.096.179.237.179.385s-.065.289-.18.384l-3 2.5c-.093.078-.207.116-.32.116z"/><path d="m22.5 30c-.045 0-.092-.006-.138-.019-.266-.076-.419-.353-.343-.618l2-7c.075-.265.35-.42.618-.344.266.076.419.353.343.618l-2 7c-.062.22-.262.363-.48.363z"/><path d="m17 23c-.117 0-.234-.041-.329-.123-1.868-1.631-3.828-2.307-5.984-2.06-.439.049-.869-.085-1.19-.373-.316-.28-.497-.683-.497-1.104v-11.75c0-.748.56-1.391 1.301-1.495 2.385-.353 4.64.311 6.699 1.982 2.058-1.67 4.315-2.335 6.703-1.981.737.103 1.297.746 1.297 1.494v11.91c0 .276-.224.5-.5.5s-.5-.224-.5-.5v-11.91c0-.252-.189-.47-.439-.505-2.254-.335-4.29.328-6.231 2.022-.189.164-.469.164-.658 0-1.941-1.694-3.976-2.355-6.228-2.022-.255.035-.444.252-.444.505v11.75c0 .138.057.265.16.357.11.098.26.142.411.126 2.425-.272 4.693.5 6.758 2.3.208.182.229.498.048.706-.099.113-.237.171-.377.171z"/><path d="m27.5 21c-.276 0-.5-.224-.5-.5v-11c0-.276-.225-.5-.5-.5h-2c-.276 0-.5-.224-.5-.5s.224-.5.5-.5h2c.827 0 1.5.673 1.5 1.5v11c0 .276-.224.5-.5.5z"/><path d="m17 23h-9.5c-.827 0-1.5-.673-1.5-1.5v-12c0-.812.669-1.485 1.491-1.5h2.009c.276 0 .5.224.5.5s-.224.5-.5.5h-2c-.271.005-.5.229-.5.5v12c0 .276.225.5.5.5h9.5c.276 0 .5.224.5.5s-.224.5-.5.5z"/><path d="m17 23c-.276 0-.5-.224-.5-.5v-14c0-.276.224-.5.5-.5s.5.224.5.5v14c0 .276-.224.5-.5.5z"/></svg>